<?xml version="1.0" standalone="no"?>
<!DOCTYPE svg PUBLIC "-//W3C//DTD SVG 20010904//EN"
 "http://www.w3.org/TR/2001/REC-SVG-20010904/DTD/svg10.dtd">
<svg version="1.0" xmlns="http://www.w3.org/2000/svg"
 width="512.000000pt" height="512.000000pt" viewBox="0 0 512.000000 512.000000"
 preserveAspectRatio="xMidYMid meet">

<g transform="translate(0.000000,512.000000) scale(0.100000,-0.100000)"
fill="#000000" stroke="none">
<path d="M3695 5069 c-119 -38 -143 -206 -39 -274 15 -9 67 -23 118 -31 121
-19 202 -46 311 -101 107 -54 159 -88 240 -157 158 -134 252 -251 338 -421 56
-109 82 -190 101 -313 16 -102 31 -133 79 -163 25 -16 45 -19 90 -16 49 3 62
8 92 37 47 45 59 87 50 172 -19 201 -114 433 -263 642 -73 104 -264 295 -368
368 -212 151 -449 247 -644 262 -41 3 -88 1 -105 -5z"/>
<path d="M3615 4481 c-80 -20 -120 -70 -119 -151 0 -94 47 -139 169 -159 232
-39 468 -273 504 -501 20 -124 80 -185 174 -177 60 5 95 30 125 88 19 37 22
53 17 99 -34 293 -249 583 -540 725 -125 61 -262 92 -330 76z"/>
<path d="M2760 4297 c-20 -7 -56 -24 -80 -39 -68 -40 -2602 -2582 -2631 -2638
-20 -38 -24 -60 -24 -140 0 -80 4 -103 24 -145 35 -73 1213 -1251 1286 -1286
42 -20 65 -24 145 -24 80 0 102 4 140 24 56 29 2586 2551 2634 2626 64 99 71
202 21 313 -23 50 -99 130 -628 659 -535 535 -609 605 -661 629 -68 31 -170
40 -226 21z m170 -773 c46 -9 116 -35 180 -67 93 -45 116 -62 200 -146 141
-142 210 -285 228 -471 15 -148 -14 -314 -75 -435 -82 -162 -229 -301 -388
-368 -126 -53 -172 -62 -320 -62 -125 0 -149 3 -225 28 -262 83 -465 294 -537
557 -28 102 -25 312 6 410 84 271 271 462 529 540 131 40 251 44 402 14z
m-1322 -1195 c97 -48 152 -131 160 -240 6 -88 -16 -154 -73 -217 -121 -134
-335 -129 -446 10 -49 62 -64 107 -63 193 0 82 22 136 82 198 62 64 112 85
213 86 54 1 76 -4 127 -30z m-613 -580 c195 -73 247 -327 98 -481 -83 -85
-225 -109 -335 -55 -128 63 -196 212 -155 342 54 173 224 257 392 194z m1195
-4 c68 -35 109 -76 141 -140 29 -60 31 -71 27 -142 -5 -87 -20 -123 -75 -184
-58 -65 -124 -93 -213 -93 -124 0 -211 52 -265 160 -39 77 -41 173 -6 252 28
62 103 134 164 156 56 21 179 16 227 -9z m-605 -586 c200 -75 249 -342 89
-488 -190 -174 -488 -43 -488 214 0 211 199 349 399 274z"/>
<path d="M2665 3137 c-76 -20 -133 -54 -188 -110 -185 -190 -128 -508 110
-620 230 -107 484 12 549 257 17 66 10 169 -17 241 -31 83 -130 183 -212 213
-73 28 -177 35 -242 19z"/>
</g>
</svg>
